<!DOCTYPE svg PUBLIC "-//W3C//DTD SVG 1.1//EN" "http://www.w3.org/Graphics/SVG/1.1/DTD/svg11.dtd">
<svg xmlns="http://www.w3.org/2000/svg" viewBox="0 0 512 512">
<path fill="#50eade" stroke="#50eade" d="M159.978 52.25c-.024 47.799-.046 47.973-6.787 55.092-6.867 7.251-5.801 7.103-55.191 7.658l-44.5.5V256c0 77.275.344 141.729.764 143.232.977 3.491 6.134 9.378 10.134 11.569 2.831 1.55 8.944 1.7 69.852 1.712 36.713.007 66.75-.277 66.75-.631 0-.355-1.463-1.771-3.25-3.148-12.591-9.699-27.602-29.13-33.404-43.237l-1.846-4.49-32.203-.003c-21.466-.003-33.015-.374-34.64-1.114-5.207-2.373-5.917-9.18-1.355-12.989 2.024-1.689 4.603-1.837 32.565-1.868l30.366-.033-.592-2.75c-.325-1.512-1.135-7.137-1.8-12.5l-1.209-9.75h-57.34l-2.646-2.452c-3.176-2.944-3.377-6.349-.585-9.898l2.061-2.62 29.663-.265 29.663-.265 1.685-9c.926-4.95 2.176-10.267 2.776-11.815.6-1.548 1.091-3.255 1.091-3.792 0-.619-11.815-.925-32.216-.836l-32.217.141-2.283-2.655c-3.027-3.518-2.9-7.068.362-10.091L96.292 264h70.674l2.424-4.75c1.334-2.613 4.936-8.237 8.006-12.5l5.581-7.75h-43.3c-42.115 0-43.359-.056-45.476-2.028-4.568-4.255-3.348-10.825 2.416-13.017 1.478-.561 23.52-.955 53.508-.955h50.995l4.69-3.594c11.005-8.434 32.357-16.747 50.285-19.579 7.453-1.177-1.206-1.384-76.434-1.827l-84.838-.5-1.912-2.361c-2.616-3.232-2.396-6.563.634-9.594L96.091 183h110.82c110.599 0 110.825.004 113.454 2.073 3.644 2.866 3.644 7.988 0 10.854-2.444 1.923-4.015 2.081-21.75 2.18-19.165.107-19.443.288-4.327 2.82 20.687 3.464 42.436 14.6 59.327 30.374l7.42 6.929-.268-108.438-.267-108.439-2.684-4.055C351.953 8.439 359.024 9 253.184 9H160l-.022 43.25m-57.228 5.71C80.338 80.444 62 99.1 62 99.419c0 .32 16.897.581 37.55.581 41.475 0 42.246-.106 44.342-6.119 1.263-3.625 1.605-76.908.358-76.84-.412.023-19.088 18.436-41.5 40.919M377 155.25c.5 108.18.501 108.253 2.637 112.25 14.532 27.201 14.18 73.552-.772 101.485-2.274 4.249-2.385 5.692-.306 3.966 1.34-1.112 2.887.029 11 8.108L399 390.46V61.315l-2.323-4.394C393.945 51.755 386.018 47 380.136 47H376.5l.5 108.25M188.455 63.455c-3.15 3.149-3.209 7.488-.141 10.371L190.629 76h128.022l2.175-2.314c2.884-3.071 2.771-7.179-.281-10.231L318.091 61H190.909l-2.454 2.455m-.266 40.584c-2.974 2.77-2.857 7.384.266 10.506l2.454 2.455h127.182l2.454-2.455c3.123-3.122 3.24-7.736.266-10.506-3.439-3.204-129.183-3.204-132.622 0M95.364 143.17c-4.531 2.194-5.426 7.483-1.951 11.524l2.414 2.806h222.948l2.079-2.5c2.827-3.399 2.706-7.53-.309-10.545L318.091 142l-110.296.068c-73.783.045-111.002.41-112.431 1.102m163.886 71.896c-41.895 5.447-75.136 35.095-86.819 77.434-3.06 11.093-2.797 38.945.478 50.5 25.873 91.284 148.789 104.151 191.101 20.004 36.702-72.987-23.826-158.46-104.76-147.938m3.25 26.489c-1.1.256-4.367.943-7.259 1.529-50.05 10.125-74.958 71.403-46.749 115.01 41.959 64.862 142.405 33.081 139.244-44.057-1.402-34.222-22.776-61.069-56.236-70.635-5.008-1.432-25.24-2.72-29-1.847m42.5 41.134c-.825.292-11.758 10.719-24.296 23.171-17.761 17.64-22.988 22.309-23.666 21.14-1.37-2.361-13.625-17.419-15.158-18.625-3.883-3.055-11.578-1.675-13.8 2.475-2.897 5.414-1.648 8.169 10.859 23.95 18.894 23.839 15.019 24.655 50.343-10.604 25.938-25.89 27.894-28.091 28.412-31.952.929-6.925-5.806-11.994-12.694-9.555m58 110.146c0 .459-3.368 4.172-7.484 8.25-8.691 8.611-8.557 8.197-4.016 12.48 4.247 4.005 4.298 4.722.596 8.341l-2.904 2.839 6.679 6.627c3.674 3.646 7.038 6.628 7.477 6.628 1.089 0 29.652-28.823 29.652-29.922 0-.483-2.95-3.902-6.555-7.597l-6.555-6.718-2.784 3.118c-3.543 3.969-3.907 3.931-8.606-.881-3.8-3.892-5.5-4.87-5.5-3.165m26.777 41.929-15.215 15.122 24.68 24.449c25.79 25.549 29.863 28.665 37.46 28.665 5.746 0 13.794-4.489 17.66-9.852 3.644-5.054 4.459-16.101 1.58-21.395-1.17-2.15-37.553-39.499-48.696-49.988l-2.255-2.122-15.214 15.121m-297.771-3.527c.014 8.708 5.648 16.426 13.682 18.746 2.706.782 39.015 1.016 125.127.809l121.315-.292-11.041-11.319-11.042-11.319-9.273.421c-5.9.267-12.731 1.399-18.774 3.108-18.288 5.174-41.518 5.147-59.678-.07L232.5 428.5l-70.25-.263-70.25-.264.006 3.264" fill-rule="evenodd"/>
<path fill="#45c1e8" stroke="#45c1e8" d="M160 52.886v43.886l-2.787 5.364c-3.329 6.408-9.759 11.172-17.246 12.778-3.173.68-20.181 1.086-45.516 1.086H54v140.532c0 152.482-.319 143.716 5.447 149.724 5.644 5.881 3.847 5.744 75.331 5.744h65.533l-2.905-2.499c-1.599-1.374-3.356-2.492-3.906-2.484-.55.007-.325.45.5.983.825.533.993.976.372.985-.62.008-1.745-.746-2.5-1.677-.932-1.15-.971-1.451-.122-.941.688.413 1.25.29 1.25-.273s-.854-1.481-1.897-2.039c-5.275-2.823-20.811-24.623-26.672-37.424L161.853 361h-32.791C91.454 361 91 360.905 91 353c0-7.824.779-8 35.447-8h30.177l-1.272-7.25c-.7-3.988-1.29-9.387-1.312-12L154 321l-26.75-.006c-33.12-.006-36.25-.727-36.25-8.346 0-8.221 1.725-8.648 34.931-8.648h28.031l.432-2.25c.238-1.238 1.371-6.322 2.519-11.298 1.148-4.977 2.087-9.364 2.087-9.75 0-.386-14.195-.702-31.545-.702H95.909l-2.454-2.455c-3.037-3.036-3.188-7.344-.382-10.91L95.145 264h70.71l3.748-6.25c2.061-3.437 5.694-8.843 8.072-12.011 2.379-3.169 4.325-5.981 4.325-6.25 0-.269-19.37-.489-43.045-.489H95.909l-2.454-2.455c-3.248-3.247-3.248-7.843 0-11.09L95.909 223h103.826l6.883-4.651c12.186-8.237 26.209-14.128 41.382-17.384l8.5-1.824-78-.076c-48.558-.047-79.355-.453-81.591-1.074-8.622-2.395-7.524-14.084 1.428-15.193 1.739-.215 52.086-.371 111.882-.345l108.718.047 2.232 2.228c3 2.995 3.003 8.544.006 11.544-2.054 2.057-3.393 2.266-17.45 2.728l-15.225.5 7.444 1.375c20.222 3.737 41.281 14.421 57.209 29.025 3.66 3.355 6.914 6.1 7.233 6.1 1.092 0 .674-209.276-.426-213.219-1.388-4.977-5.489-9.662-10.419-11.901-3.826-1.739-8.968-1.837-96.791-1.858L160 9v43.886m-56.75 5.363C81.112 80.392 63 98.845 63 99.255c0 .41 16.537.743 36.75.741 34.77-.003 36.924-.109 39.973-1.969 4.43-2.701 4.368-2.042 4.056-43.282L143.5 17.99l-40.25 40.259m274.417-10.582c-.367.366-.667 48.287-.667 106.49v105.824l2.168 4.965c1.192 2.73 2.612 4.69 3.154 4.355.543-.336.695-.138.339.438-.356.577.078 2.784.966 4.905.887 2.121 3.109 9.706 4.936 16.856l3.323 13-.067-7.792c-.038-4.286.213-8.073.556-8.417.344-.343.625 2.085.625 5.396s.337 8.898.75 12.416c.713 6.078.777 5.774 1.297-6.103l.548-12.5.202 12.25c.217 13.103 1.507 16.179 2.561 6.103.353-3.38.632-59.518.62-124.75-.025-132.795.48-123.634-7.119-129.371-4.436-3.349-12.577-5.681-14.192-4.065M188.189 63.039c-2.759 2.57-2.891 7.872-.278 11.1l1.912 2.361 63.338.247c68.137.266 67.07.341 69.582-4.898 1.509-3.146.039-8.36-2.782-9.87-1.139-.609-25.953-.979-65.707-.979-62.901 0-63.91.031-66.065 2.039m2.126 38.968c-4.626 1.864-5.874 9.463-2.126 12.954 2.155 2.008 3.164 2.039 66.065 2.039 39.754 0 64.568-.37 65.707-.979 4.516-2.417 4.447-10.221-.12-13.42-2.58-1.807-125.12-2.369-129.526-.594m-96.86 42.448c-3.343 3.342-3.264 7.891.191 11.093L96.292 158h110.307c80.316 0 110.986-.309 112.804-1.138 4.826-2.198 5.298-10.088.808-13.499-1.379-1.047-23.283-1.306-113.006-1.331L95.909 142l-2.454 2.455m159.179 72.081c-68.204 12.875-104.1 92.571-68.476 152.03 8.094 13.51 27.879 33.765 31.06 31.799.618-.382.807-.215.436.385-.633 1.025 5.761 5.39 11.711 7.996 3.28 1.436 4.781 1.632 2.778.364-.949-.602-.542-.86 1.357-.86 1.918 0 2.316.257 1.357.875-1.04.671-.832 1.019.893 1.492 1.238.339 2.25.961 2.25 1.383 0 .422.866.993 1.925 1.27 1.357.355 1.767.091 1.389-.895-.37-.962-.037-1.206 1.069-.782.883.339 1.411.931 1.173 1.316-.237.385.888 1.198 2.502 1.807 1.721.649 3.166.73 3.497.196.31-.502-.337-.912-1.437-.912s-2.319-.516-2.708-1.146c-.499-.806.076-.949 1.941-.481 1.567.394 2.649.249 2.649-.354 0-.56-1.463-1.086-3.25-1.169l-3.25-.15 2.924-.433c2.201-.326 2.572-.657 1.5-1.335-.942-.597.52-.907 4.326-.917L256 408v-4c0-2.525.461-4.006 1.25-4.015.902-.011.865-.26-.133-.892-1.009-.638-.467-1.079 2-1.626 2.967-.658 3.137-.853 1.383-1.592-1.251-.526.247-.668 4-.378 13.329 1.029 17.825 1.263 14.5.754-3.369-.515-3.407-.566-1-1.371 1.966-.658 1.726-.73-1.125-.337-4.616.637-21.498-2.058-29.25-4.669-8.736-2.943-14.31-6.005-22.27-12.234-3.907-3.057-7.458-5.239-7.89-4.849-.432.39-.496.201-.142-.419s-1.047-3.095-3.114-5.5C180.396 327.537 195.773 265.256 244 246.207c42.259-16.691 87.539 5.342 101.876 49.573 2.882 8.891 2.965 9.69 2.693 25.947-.154 9.225-.606 18.123-1.005 19.773-.489 2.02-.412 2.555.234 1.637.81-1.151 1.05-1.151 1.541 0 .32.75.371.238.113-1.137-.257-1.375.229-4.3 1.081-6.5.93-2.404 1.407-3.003 1.193-1.5-.337 2.378-.144 2.483 3.96 2.149l4.314-.35V325h8l.015 5.25c.009 2.887.446 5.925.972 6.75.679 1.065.831.484.523-2-.983-7.948-1.278-15.393-.534-13.5.664 1.692.877 1.462 1.385-1.5 1.351-7.885 1.516-8.233 1.18-2.5-.246 4.202-.075 5.401.568 4 .774-1.685.859-1.561.537.785-.21 1.531-.139 2.541.158 2.244 1.247-1.247.877-20.529-.394-20.529-.695 0-1.457.563-1.693 1.25-.237.688-.181.35.124-.75 6.078-21.942-21.441-63.123-52.77-78.969-18.334-9.273-44.736-12.902-65.437-8.995M389.158 283c0 1.375.227 1.938.504 1.25.278-.687.278-1.812 0-2.5-.277-.687-.504-.125-.504 1.25m-83.658-.019c-1.1.469-11.896 10.791-23.991 22.936C269.413 318.063 259.036 328 258.447 328c-.588 0-3.517-3.031-6.509-6.736-12.191-15.101-15.647-16.999-21.61-11.87-5.563 4.786-4.377 8.079 8.942 24.814 11.12 13.973 14.669 17.52 16.099 16.09.347-.347.631-.106.631.535 0 .642.702 1.167 1.559 1.167s1.284-.445.948-.989c-.354-.573.061-.73.989-.374 1.814.696 56.009-52.413 57.589-56.435 1.289-3.284-1.241-8.714-4.957-10.636-3.393-1.754-3.805-1.791-6.628-.585M392.154 315c-.1 1.925-.413 4.625-.696 6l-.514 2.5 1.075-2.466c.592-1.356.905-4.056.697-6l-.38-3.534-.182 3.5m-42.501 13.884c-.396 2.41-.479 4.623-.186 4.916.293.293.533-.404.533-1.55s.367-2.233.815-2.417c.448-.183.531-1.458.186-2.833-.541-2.151-.729-1.887-1.348 1.884m20.599.616c.011 2.2.216 2.982.455 1.738.239-1.244.23-3.044-.02-4s-.446.062-.435 2.262m1.779-3c0 .55.436 1.675.969 2.5.533.825.969 1.05.969.5s-.436-1.675-.969-2.5c-.533-.825-.969-1.05-.969-.5m-21.945 13c.104 1.894 1.77 5.084 1.828 3.5.031-.825-.381-2.175-.914-3-.533-.825-.945-1.05-.914-.5m-4.928 2.5c0 1.375.227 1.938.504 1.25.278-.687.278-1.812 0-2.5-.277-.687-.504-.125-.504 1.25m-3.692 8.707c-.43.986-.68 2.401-.557 3.143.124.743-.228 1.071-.782.729-.566-.35-.937.289-.849 1.462.136 1.804.309 1.876 1.288.537.623-.851 1.425-1.254 1.783-.896.358.358.651.153.651-.456 0-.61-.472-1.4-1.049-1.756-.714-.442-.669-1.105.143-2.083.655-.79.957-1.669.672-1.954-.285-.286-.87.288-1.3 1.274m1.098 8c-.542 1.425-.428 1.54.56.56.684-.679.991-1.486.683-1.793-.308-.308-.867.247-1.243 1.233M333 364.694c-1.375 2.025-3.372 4.497-4.439 5.494-1.066.996-1.424 1.812-.796 1.812.628 0 1.95-1.134 2.938-2.519.988-1.386 2.585-3.48 3.547-4.653 1.51-1.841 2.296-3.843 1.5-3.821-.137.004-1.375 1.663-2.75 3.687M332 372c-1.282.828-1.246.972.25.985.962.008 1.75-.435 1.75-.985 0-1.22-.113-1.22-2 0m-94.443 16.418c1.067.78 2.153 1.206 2.412.946.551-.55-2.028-2.326-3.41-2.349-.518-.008-.068.623.998 1.403M303 388c-.901.582-1.025.975-.309.985.655.008 1.469-.435 1.809-.985.767-1.242.421-1.242-1.5 0m-92 8.378c0 .207.685.946 1.523 1.641 1.273 1.057 1.42.995.893-.378-.538-1.401-2.416-2.384-2.416-1.263m53 .556c0 .513-1.238 1.127-2.75 1.363-1.512.237-.725.388 1.75.336 2.475-.051 6.3.198 8.5.555l4 .648-3.75-1.094c-2.062-.602-3.75-1.465-3.75-1.918 0-.453-.9-.824-2-.824s-2 .42-2 .934m16.75 1.728c.688.278 1.813.278 2.5 0 .688-.277.125-.504-1.25-.504s-1.937.227-1.25.504m-45 11c.688.278 1.813.278 2.5 0 .688-.277.125-.504-1.25-.504s-1.937.227-1.25.504M92.006 430.75c.012 3.801 2.106 8.935 5.149 12.624 5.824 7.062 4.18 6.9 60.772 5.965 27.815-.46 48.661-.975 46.323-1.145l-4.25-.309V437h4c3.582 0 4-.257 4-2.46 0-2.386.244-2.469 8.25-2.796 6.699-.274 5.947-.375-4-.54-7.364-.123-12.25-.603-12.25-1.204 0-.654-18.667-1-54-1-50.764 0-54 .105-53.994 1.75m144.744.912c.688.278 1.813.278 2.5 0 .688-.277.125-.504-1.25-.504s-1.937.227-1.25.504m14.063 4.021c.721.289 1.584.253 1.916-.079.332-.332-.258-.568-1.312-.525-1.165.048-1.402.285-.604.604m-6.544 1.01c.973.254 2.323.237 3-.037.677-.274-.119-.481-1.769-.461-1.65.02-2.204.244-1.231.498m7.544.99c.721.289 1.584.253 1.916-.079.332-.332-.258-.568-1.312-.525-1.165.048-1.402.285-.604.604" fill-rule="evenodd"/>
<path fill="#3c9ff1" stroke="#3c9ff1" d="M160.5 51.25c0 48.829-.079 49.425-7.576 56.921-7.711 7.712-8.567 7.829-57.106 7.829H54l.088 129.25c.048 71.087.438 131.5.866 134.25l.779 5 .133-4.25L56 376h4c2.2 0 4 .45 4 1s1.8 1 4 1h4v-10h8v-4c0-3.992.008-4 3.95-4 2.708 0 4.271-.551 4.97-1.75.561-.962 1.033-1.236 1.05-.607.016.629.705 1.402 1.53 1.719 2.102.806 1.88.152-1-2.957-2.384-2.571-3.434-5.1-1.665-4.007.739.457 4.678-6.126 4.427-7.398-.055-.275 6.052-.453 13.569-.396 7.518.057 11.757-.081 9.419-.308-4.212-.407-4.25-.446-4.25-4.353 0-3.933.01-3.943 4-3.943 2.2 0 4 .45 4 1s1.8 1 4 1h4v-9.715l6.147-.643c12.669-1.324 17.82-.884 18.822 1.608l.904 2.25.064-2.168c.084-2.897-1.063-5.742-1.826-4.528-.915 1.454-32.111 2.734-32.111 1.317 0-.763 4.391-1.192 13.75-1.343 11.125-.179 9.359-.328-9.25-.778l-23-.557 26-.386c29.846-.444 21.46-1.725-12.694-1.94-17.943-.112-18.801-.209-21.35-2.401-3.498-3.009-3.677-8.787-.382-12.295L95.349 304h58.689l-.665-2.649c-.433-1.725-.302-2.425.375-2.007.605.374 1.02-.294.992-1.601-.025-1.233.304-3.818.734-5.743.429-1.925.75-4.297.714-5.272-.04-1.04.386-1.491 1.03-1.093.721.445.904-.062.533-1.479-.31-1.186-.156-2.156.343-2.156.498 0 .906-.426.906-.947 0-.575-12.199-.978-30.998-1.024C91.308 279.938 91 279.87 91 271.852c0-8.397 2.108-8.84 42.101-8.846l32.6-.006 3.159-5.081c1.737-2.794 2.896-5.506 2.575-6.025-.321-.519-.167-.82.342-.669.509.151 2.475-1.75 4.369-4.225 4.957-6.48 5.143-6.886 3.126-6.826-.975.029-20.447-.247-43.272-.612-46.714-.749-45.018-.431-44.985-8.423.035-8.353-1.461-8.139 56.896-8.139h51.042l6.773-4.569c10.309-6.954 24.21-13.191 36.601-16.419L253.5 199.1l-79.339-.3-79.338-.3-1.912-2.361c-2.448-3.024-2.448-8.255.001-11.278l1.911-2.361 111.604-.263c98.351-.231 111.879-.083 113.918 1.254 1.273.834 2.672 1.177 3.109.763.437-.415.449.367.026 1.738-.675 2.19-.577 2.334.806 1.186 1.624-1.348 4.749 2.121 3.255 3.614-.341.341-.89-.41-1.219-1.67-.449-1.715-.812-1.955-1.445-.957-.973 1.535-1.177 3.468-.27 2.562.977-.977 3.191 1.635 2.629 3.102-.421 1.094-.662 1.1-1.321.034-.443-.718-1.08-1.031-1.415-.697-.334.335.302 2.104 1.413 3.932l2.021 3.323-.217-2.961c-.206-2.808.002-2.976 4.033-3.267l4.25-.308V180h4c3.333 0 4-.333 4-2s.667-2 4-2h4v-8h8l.25-60.25c.377-90.861.566-83.544-2.296-88.717-1.817-3.285-3.846-5.162-7.818-7.235L344.772 9H160.5v42.25M103 58.5 62.509 99h76.582l2.454-2.455L144 94.091V56.045C144 35.12 143.885 18 143.745 18S125.27 36.225 103 58.5m274.07 47.75c.039 32.038.457 59.15.93 60.25.577 1.343.883-.711.93-6.25.056-6.635.364-8.25 1.57-8.25 1.133 0 1.5 1.222 1.5 5 0 2.75.45 5 1 5s1-1.8 1-4c0-3.92.071-4 3.571-4 5.567 0 6.267-1.426 7.191-14.645l.828-11.855.815 12.25c1.564 23.485 2.49 11.944 2.564-31.946l.074-44.196-2.596-5.305C393.297 51.864 387.565 48 381.162 48H377l.07 58.25M189.25 61.977c-4.617 2.832-4.951 9.015-.69 12.773l2.552 2.25h62.897c44.616 0 63.618-.328 65.376-1.13 4.925-2.244 5.704-9.669 1.421-13.546-3.298-2.985-126.726-3.311-131.556-.347m-.894 41.393c-3.564 3.066-3.811 8.62-.528 11.902l2.227 2.228h129.118l2.413-2.806c3.499-4.067 2.309-11.369-2.131-13.073-.89-.341-30.132-.621-64.981-.621h-63.362l-2.756 2.37m3.703 38.323-96.441.317-2.309 2.169c-3.352 3.15-3.191 8.982.326 11.748 3.811 2.998 223.63 3.31 227.285.323 3.415-2.792 3.795-8.307.811-11.777l-2.475-2.876-15.378-.111c-8.458-.061-58.776.032-111.819.207m134.02 6.89c.048 1.165.285 1.402.604.605.289-.722.253-1.585-.079-1.917-.332-.332-.568.258-.525 1.312m-4.982 48.8c-.875 1.054-.836 1.503.163 1.887.796.305 1.311-.238 1.311-1.384 0-2.254-.016-2.26-1.474-.503M324 198.5c0 .825.436 1.5.969 1.5.532 0 .709-.675.393-1.5-.317-.825-.753-1.5-.969-1.5-.216 0-.393.675-.393 1.5m-32.25 1.162c.688.278 1.813.278 2.5 0 .688-.277.125-.504-1.25-.504s-1.937.227-1.25.504m5.75.062c1.1.27 2.543.932 3.206 1.47.664.538 1.667.694 2.23.346.562-.348 1.863-.183 2.89.367 1.027.55 2.274.618 2.771.152.497-.467 2.478-1.141 4.403-1.498l3.5-.65-4 1.963c-2.377 1.168-3.274 1.997-2.21 2.045.984.045 3.684 1.002 6 2.127l4.21 2.046-2.361-2.046c-1.298-1.125-3.098-2.06-4-2.078-1.385-.027-1.338-.26.309-1.504 1.071-.811 2.871-1.223 4-.917 2.017.547 2.019.53.111-.995-1.503-1.201-4.327-1.526-12.5-1.436-5.808.064-9.659.337-8.559.608m19.5 3.669c0 .216.675.652 1.5.969.825.316 1.5.139 1.5-.393 0-.533-.675-.969-1.5-.969s-1.5.177-1.5.393m15 5.99c0 .211.901.619 2.001.907 1.101.288 1.75.115 1.441-.383-.538-.871-3.442-1.313-3.442-.524m-74 6.665a2124.8 2124.8 0 0 1-8.729 1.495c-2.326.393-4.013 1.065-3.749 1.493.264.427-.49.524-1.677.213-1.619-.423-1.953-.232-1.337.763.596.966.366 1.154-.844.689-1.967-.754-4.868.16-4.157 1.311.273.441-.314.59-1.305.331-2.301-.602-17.88 7.523-25.147 13.114-6.79 5.225-17.616 16.573-22.109 23.174-1.823 2.678-3.569 5.094-3.88 5.369-1.311 1.159-7.065 14.193-6.598 14.948.28.454-.16 1.381-.979 2.061-1.933 1.604-1.901 2.991.07 2.991.857 0 1.293.43.968.956-.325.526-1.252.703-2.059.393-.807-.309-1.468-.102-1.468.461 0 .563.563 1.25 1.25 1.528 1 .403 1 .52 0 .583-.687.043-1.25 1.095-1.25 2.336 0 2.062.39 2.226 4.5 1.9 4.868-.388 6.311-3.036 2.75-5.045-1.322-.746-1.468-1.272-.599-2.15.872-.882 1.312-.655 1.817.937.525 1.655 1.484 2.101 4.516 2.101 2.178 0 4.04.543 4.289 1.25.242.688.222-1.113-.044-4l-.483-5.25h4.127c3.901 0 4.127.161 4.127 2.941 0 4.886 1.392 4.224 4.773-2.268 1.768-3.395 5.017-8.545 7.221-11.443 2.203-2.899 4.006-5.738 4.006-6.309 0-.572.421-.779.935-.461.514.317 2.616-1.435 4.672-3.894 2.055-2.459 4.079-4.26 4.496-4.002.418.258 2.428-.663 4.468-2.047 2.039-1.385 4.122-2.517 4.628-2.517.505 0 .598-.52.206-1.155-.393-.634-.307-.916.19-.625 1.202.704 4.596-.569 4.394-1.647-.21-1.116 2.115-2.557 4.011-2.487.989.036.819.347-.5.914-1.77.76-1.793.868-.203.93.996.039 2.555-1.264 3.5-2.924.936-1.646 2.067-2.996 2.512-3 .445-.003.531.444.191.994-.782 1.265.649 1.274 3.935.025 1.588-.604 2.565-1.747 2.565-3 0-1.696.65-2.025 4-2.025 3.333 0 4-.333 4-2s.667-2 4-2h4v-8h4c2.2 0 4 .45 4 1s1.8 1 4 1c3.258 0 4-.351 4-1.893 0-2.169 1.809-3.077 6.332-3.177 1.742-.039 4.068-.435 5.168-.881 2.62-1.061-4.02-2.493-8.507-1.835-1.646.242-2.993.068-2.993-.387s.563-.887 1.25-.961c.688-.073-1-.484-3.75-.912-6.312-.983-21.594-.931-27.5.094m36.269 3.645c.973.254 2.323.237 3-.037.677-.274-.119-.481-1.769-.461-1.65.02-2.204.244-1.231.498m9.731 2.213c0 .499.9.671 2 .384 1.1-.288 2-.696 2-.907 0-.21-.9-.383-2-.383s-2 .408-2 .906m-10.296 1.198c.791.791 1.626.799 2.95.03 1.618-.941 1.482-1.077-1.104-1.104-2.151-.022-2.651.269-1.846 1.074m19.737 1.341c1.068.855 2.38 1.555 2.917 1.555 1.27 0 .703-.462-2.358-1.92-2.357-1.122-2.389-1.102-.559.365M314.5 228c.34.55.816 1 1.059 1s.441-.45.441-1-.477-1-1.059-1-.781.45-.441 1m5.088 0c.485.825.888 1.8.897 2.167.008.366.319.97.69 1.341.371.372.569-.046.44-.926-.129-.881-.837-2.16-1.572-2.842-1.083-1.005-1.169-.956-.455.26m-78.422 12.876c-1.067.677-1.007.971.302 1.473 1.043.401 1.391.231.959-.468-.457-.739.095-.876 1.698-.423 1.831.519 2.032.433.875-.377-1.813-1.269-2.128-1.286-3.834-.205M257.5 241c-1.319.567-1.489.878-.5.914.825.031 2.175-.381 3-.914 1.828-1.181.249-1.181-2.5 0m-8.767 2.124c.679.684 1.486.991 1.793.683.308-.308-.247-.867-1.233-1.243-1.425-.542-1.54-.428-.56.56m-18.286 5.791c.311.503.101 1.144-.466 1.425-.567.28-.485.403.181.273 1.586-.311 2.346-2.613.862-2.613-.628 0-.888.412-.577.915m-5.35 1.468c-.889 1.071-.785 1.523.459 2 2.402.922 3.143.717 1.444-.398-1.333-.876-1.333-1.094 0-1.97.825-.541.993-.991.372-1-.62-.008-1.644.607-2.275 1.368M216 258.902c0 1.038 1.902 2.541 2.466 1.948.183-.192-.297-.93-1.067-1.639-.769-.71-1.399-.849-1.399-.309m-6.94 9.526c-.674.812-1.015 2.285-.759 3.274.38 1.462.489 1.394.583-.369.064-1.191.679-2.367 1.366-2.613.688-.245.977-.744.643-1.107-.335-.364-1.159.003-1.833.815m-26.36 1.913c-.283.737-.163 1.91.268 2.606.5.81.782.327.782-1.34 0-2.91-.287-3.256-1.05-1.266m17.682 2.851c-.32.517-.312 1.211.018 1.541.33.33.6.075.6-.566 0-.642.48-1.167 1.067-1.167s.821.788.52 1.75c-.302.962-.764 3.55-1.027 5.75-.441 3.682-.363 3.846.98 2.059.803-1.068 1.46-2.382 1.46-2.921 0-.539.73-1.787 1.621-2.772.892-.985 1.378-2.427 1.08-3.204-.606-1.577-5.414-1.936-6.319-.47m3.225 1.39c-1.094 2.851-.636 3.839.861 1.859.808-1.067 1.483-2.278 1.5-2.691.059-1.397-1.75-.76-2.361.832m-21.592 1.609c-.008.93.435 1.969.985 2.309 1.266.782 1.266-.542 0-2.5-.835-1.293-.971-1.266-.985.191M180 280.5c0 .825.375 1.5.833 1.5.459 0 .834-.675.834-1.5s-.375-1.5-.834-1.5c-.458 0-.833.675-.833 1.5m14 8.5c0 .55.45 1 1 1s1 .75 1 1.667c0 .916.266 1.4.591 1.075.835-.834-.532-4.742-1.658-4.742-.513 0-.933.45-.933 1m-20.426 4.5c.301 1.65.744 4.35.985 6l.437 3-1.453-3c-1.264-2.61-1.459-2.715-1.498-.809-.025 1.205.407 2.47.959 2.811.552.341.76 1.83.464 3.309-.382 1.899-.046 1.559 1.141-1.158 1.563-3.574 1.567-4.176.049-8.5-.908-2.588-1.389-3.322-1.084-1.653m24.231.028c-.864 1.898-1.382 2.21-2.073 1.25-.645-.895-.743-.729-.326.554.327 1.007.597 2.357.6 3 .006 1.161 1.996-2.24 3.266-5.582 1.027-2.703-.17-2.068-1.467.778m-4.726.055c.048 1.165.285 1.402.604.605.289-.722.253-1.585-.079-1.917-.332-.332-.568.258-.525 1.312m-.884 4.917c.02 1.65.244 2.204.498 1.231.254-.973.237-2.323-.037-3-.274-.677-.481.119-.461 1.769m1.884 7.083c.048 1.165.285 1.402.604.605.289-.722.253-1.585-.079-1.917-.332-.332-.568.258-.525 1.312M89.123 347.629c-.659 1.446-.938 2.889-.621 3.207.318.317.837-.416 1.154-1.63.318-1.213.975-2.206 1.461-2.206.485 0 .883-.45.883-1 0-1.931-1.691-.973-2.877 1.629M97.5 363c-1.676.72-1.474.871 1.25.93 1.787.038 3.25-.38 3.25-.93 0-1.187-1.737-1.187-4.5 0m1.313 3.683c.721.289 1.584.253 1.916-.079.332-.332-.258-.568-1.312-.525-1.165.048-1.402.285-.604.604M57.659 403c.975 1.65 2.139 3 2.587 3 .447 0-.184-1.35-1.404-3s-2.384-3-2.587-3c-.202 0 .429 1.35 1.404 3m1.905-1.707c.376.986.935 1.541 1.243 1.233.308-.307.001-1.114-.683-1.793-.988-.98-1.102-.865-.56.56" fill-rule="evenodd"/>
<path fill="#317df8" stroke="#317df8" d="M161 50.841c0 51.555-.697 54.793-13.292 61.773L142.5 115.5l-44.25.289-44.25.29.175 66.21c.096 36.416.347 64.299.557 61.961l.383-4.25H64v-8h4c2.889 0 4-.417 4-1.5s1.111-1.5 4-1.5c3.6 0 4-.25 4-2.5s.4-2.5 4-2.5c2.889 0 4-.417 4-1.5 0-.825.471-1.5 1.048-1.5.576 0 2.135-1.173 3.464-2.607 2.484-2.68 5.768-1.733 4.735 1.366-.604 1.812.831 1.516 2.285-.471 1.058-1.448 1.5-1.506 2.86-.378 1.063.882 1.608.954 1.608.212 0-.617-.54-1.122-1.2-1.122-.933 0-.933-.267 0-1.2.66-.66 1.2-2.91 1.2-5 0-3.32.296-3.8 2.345-3.8 2.836 0 5.655-2.877 5.655-5.771 0-1.76.711-2.178 4.25-2.497 2.338-.21-1.447-.461-8.411-.557-12.631-.175-12.667-.182-15.082-3.053-2.163-2.57-2.549-2.703-3.61-1.25-.899 1.232-.896 1.019.01-.872.659-1.375 1.246-3.517 1.304-4.761.058-1.243 1.226-3.38 2.594-4.749 2.712-2.711 1.049-2.583 46.445-3.578 12.899-.282 12.934-.289 4.5-.912l-8.5-.627 12.25-.187c10.139-.154 12.25-.444 12.25-1.686 0-1.083-1.111-1.5-4-1.5-2.889 0-4-.417-4-1.5s1.111-1.5 4-1.5c3.6 0 4-.25 4-2.5s.4-2.5 4-2.5h4v-8h4c2.2 0 4-.463 4-1.028 0-.688-13.201-.998-39.95-.938-25.94.058-40.632-.275-41.895-.951-4.202-2.249-4.756-10.323-.945-13.773 1.859-1.683 6.066-1.864 60.145-2.58 31.98-.424 61.07-1.12 64.645-1.547 4.379-.523-.19-.718-14-.597-23.878.208-18.971-.325 13.5-1.468 17.327-.61 19.978-.848 10.75-.964L216 136v-8h8v-8l8.25-.16c4.537-.087-3.3-.65-17.417-1.25-24.632-1.046-25.745-1.18-27.601-3.322-1.064-1.227-2.196-1.97-2.516-1.651-.319.32-.413-.251-.208-1.268 2.5-12.425-2.769-11.312 54.742-11.572 40.065-.182 44.681-.327 24.75-.777l-24.5-.554 24.5-.435 24.5-.436-16.5-.537c-14.125-.461-15.575-.646-10.076-1.291 7.039-.825 10.076-2.755 10.076-6.402 0-2.069.47-2.345 4-2.345h4v-8h5.853C294.302 80 304 78.855 304 77.858c0-.472-25.6-.858-56.889-.858-63.734 0-60.552.371-61.765-7.204-.512-3.202-.18-4.116 2.454-6.75L190.846 60h60.03c43.309 0 60.737-.322 62.568-1.157 1.896-.863 3.111-.87 4.797-.026 2.109 1.055 2.06 1.1-.741.675-2.98-.451-2.979-.447.294.684 1.812.626 4.205 2.418 5.318 3.981C325.136 67 327 67.883 327 66c0-.55-.675-1-1.5-1s-1.5-.527-1.5-1.171-.745-1.994-1.655-3c-1.985-2.193-.619-2.409 2.301-.364 1.15.805 2.373 1.183 2.717.839.344-.344-.349-1.116-1.54-1.715s-2.351-1.651-2.577-2.339c-.618-1.871 1.839-1.506 3.362.5 1.154 1.521 1.333.996 1.36-4L328 48h16v-4c0-3.53.276-4 2.345-4 2.857 0 5.655-2.884 5.655-5.829 0-1.866.561-2.171 4-2.171 3.974 0 4-.025 4-3.851 0-4.098-1.865-10.617-2.776-9.706-.3.3-1.036-.465-1.635-1.699s-3.532-3.481-6.518-4.994L343.641 9H161v41.841m192.561-31.724c1.85 3.579 1.799 4.943-.093 2.442-.807-1.068-1.468-1.495-1.468-.95 0 1.672 2.164 3.265 3.658 2.692 1.196-.459 1.171-.913-.164-2.95-.867-1.324-1.353-2.77-1.08-3.213.274-.442-.13-.805-.897-.805-1.184 0-1.177.423.044 2.784M103.025 58.5 62.583 99h75.571l2.923-2.923L144 93.154V55.577C144 34.91 143.88 18 143.733 18c-.146 0-18.465 18.225-40.708 40.5M387 50.393c0 .216.698.661 1.552.989.89.341 1.291.173.941-.393-.587-.951-2.493-1.406-2.493-.596m4 1.985c0 .207.788.995 1.75 1.75 1.586 1.243 1.621 1.208.378-.378-1.307-1.666-2.128-2.195-2.128-1.372m-77.25 4.284c.688.278 1.813.278 2.5 0 .688-.277.125-.504-1.25-.504s-1.937.227-1.25.504m12.063 7.021c.721.289 1.584.253 1.916-.079.332-.332-.258-.568-1.312-.525-1.165.048-1.402.285-.604.604m-2.162 8.314c-1.285 2.576-1.243 2.648 1.26 2.168 1.424-.273 2.027-.684 1.339-.914-.687-.23-1.25-1.11-1.25-1.957 0-1.169.32-1.273 1.333-.432.997.827 1.334.773 1.334-.211 0-2.303-2.636-1.419-4.016 1.346m-10.176 5.963c.354.572 1.816 1.04 3.251 1.04 3.134 0 2.772-.479-1.06-1.399-1.858-.447-2.612-.323-2.191.359m8.525-.019c0 .518.445 1.216.989 1.552.566.35.734-.051.393-.941-.665-1.732-1.382-2.049-1.382-.611M97.75 216.662c.688.278 1.813.278 2.5 0 .688-.277.125-.504-1.25-.504s-1.937.227-1.25.504m4.063 6.021c.721.289 1.584.253 1.916-.079.332-.332-.258-.568-1.312-.525-1.165.048-1.402.285-.604.604M90 225.167c0 .458.423.833.941.833s1.173-.375 1.456-.833c.283-.459-.14-.834-.941-.834-.801 0-1.456.375-1.456.834m-1.541 6.9c-.363.586-.445 1.281-.183 1.543s.743-.218 1.069-1.067c.676-1.762.1-2.072-.886-.476m2.97 5.822c0 .978.578 1.778 1.285 1.778s1.286-.32 1.286-.711c0-.391-.579-1.191-1.286-1.778-.965-.802-1.285-.625-1.285.711m-2.865 32.818c-.542 1.425-.428 1.54.56.56.684-.679.991-1.486.683-1.793-.308-.308-.867.247-1.243 1.233M90 275.711c0 .574.787 1.662 1.75 2.417 1.619 1.269 1.64 1.222.283-.628-.807-1.1-1.594-2.187-1.75-2.417-.156-.229-.283.054-.283.628" fill-rule="evenodd"/>
</svg>