<!DOCTYPE svg PUBLIC "-//W3C//DTD SVG 1.1//EN" "http://www.w3.org/Graphics/SVG/1.1/DTD/svg11.dtd">
<svg xmlns="http://www.w3.org/2000/svg" viewBox="0 0 256 256">
<path fill="#0faefc" stroke="#0faefc" d="M35.5 16.954c-1.1.455-3.125 2.038-4.5 3.517l-2.5 2.69v209.801l3.269 3.269 3.269 3.269H91.16c52.362 0 56.195-.117 57.226-1.75.805-1.276.805-2.224 0-3.5-1.026-1.626-4.941-1.768-55.403-2.009-38.075-.181-54.7-.591-55.641-1.372-1.869-1.551-2.009-203.802-.142-205.669 1.737-1.737 147.863-1.737 149.6 0 .906.906 1.2 15.481 1.2 59.465 0 57.241.035 58.283 2 59.335 1.421.76 2.579.76 4 0 1.965-1.052 2-2.094 2-60.131 0-64.874.213-62.54-6.04-66.233-3.054-1.804-150.177-2.454-154.46-.682M45.2 37.2c-1.634 1.634-1.634 19.966 0 21.6 1.634 1.634 19.966 1.634 21.6 0 1.634-1.634 1.634-19.966 0-21.6-1.634-1.634-19.966-1.634-21.6 0m32.009 7.991c-1.606 1.606-1.533 4.295.155 5.696 2.565 2.129 100.652 1.036 102.022-1.137.805-1.276.805-2.224 0-3.5-1.413-2.241-99.973-3.263-102.177-1.059M45.2 69.2c-1.634 1.634-1.634 19.966 0 21.6 1.634 1.634 19.966 1.634 21.6 0 1.634-1.634 1.634-19.966 0-21.6-1.634-1.634-19.966-1.634-21.6 0m32.009 7.991c-1.606 1.606-1.533 4.295.155 5.696 2.565 2.129 100.652 1.036 102.022-1.137.805-1.276.805-2.224 0-3.5-1.413-2.241-99.973-3.263-102.177-1.059M45.2 101.2c-1.634 1.634-1.634 19.966 0 21.6 1.634 1.634 19.966 1.634 21.6 0 1.634-1.634 1.634-19.966 0-21.6-1.634-1.634-19.966-1.634-21.6 0m32.009 7.991c-1.606 1.606-1.533 4.295.155 5.696 2.565 2.129 100.652 1.036 102.022-1.137.805-1.276.805-2.224 0-3.5-1.413-2.241-99.973-3.263-102.177-1.059M45.2 133.2c-1.634 1.634-1.634 19.966 0 21.6 1.634 1.634 19.966 1.634 21.6 0 1.634-1.634 1.634-19.966 0-21.6-.767-.767-4.667-1.2-10.8-1.2-6.133 0-10.033.433-10.8 1.2m32.011 7.989c-1.609 1.609-1.536 4.296.155 5.7 2.555 2.12 83.65 1.034 85.02-1.139.805-1.276.805-2.224 0-3.5-1.413-2.241-82.979-3.257-85.175-1.061M173 153.296c-44.581 12.77-43.003 76.146 2.138 85.827 39.331 8.435 68.435-38.524 43.503-70.19-10.431-13.248-30.261-20.042-45.641-15.637M45.2 165.2c-1.634 1.634-1.634 19.966 0 21.6 1.634 1.634 19.966 1.634 21.6 0 1.634-1.634 1.634-19.966 0-21.6-.767-.767-4.667-1.2-10.8-1.2-6.133 0-10.033.433-10.8 1.2m32 8c-.66.66-1.2 1.92-1.2 2.8 0 3.759 1.695 4 28.165 4 24.741 0 25.807-.079 26.835-2 .76-1.421.76-2.579 0-4-1.028-1.921-2.094-2-26.835-2-18.706 0-26.094.329-26.965 1.2m112.059 18.03-11.23 11.23-5.296-5.23c-6.305-6.227-10.733-6.745-10.733-1.255 0 1.996 14.04 16.025 16.037 16.025 1.972 0 27.963-26.085 27.963-28.063 0-1.979-1.967-3.937-3.956-3.937-.855 0-6.609 5.054-12.785 11.23M45.2 197.2c-1.634 1.634-1.634 19.966 0 21.6 1.634 1.634 19.966 1.634 21.6 0 1.634-1.634 1.634-19.966 0-21.6-.767-.767-4.667-1.2-10.8-1.2-6.133 0-10.033.433-10.8 1.2m32.017 7.983c-1.617 1.617-1.543 4.301.157 5.713 2.514 2.086 49.642 1.028 51.013-1.146.804-1.276.804-2.224 0-3.5-1.412-2.24-49.005-3.232-51.17-1.067" fill-rule="evenodd"/>
<path fill="#3d76fc" stroke="#3d76fc" d="M114 19.954V24h36.5c20.075 0 36.603.113 36.73.25.126.137.464 26.751.75 59.141.483 54.669.645 58.971 2.27 59.995 1.276.805 2.224.805 3.5 0 2.434-1.535 3.224-114.118.842-119.821-2.953-7.066-2.745-7.031-43.796-7.361L114 15.908v4.046M114 48v4h31.429c32.24 0 34.571-.27 34.571-4s-2.331-4-34.571-4H114v4m0 32v4h31.429c32.24 0 34.571-.27 34.571-4s-2.331-4-34.571-4H114v4m0 32v4h31.429c32.24 0 34.571-.27 34.571-4s-2.331-4-34.571-4H114v4m0 32v4h22.929c23.266 0 26.071-.43 26.071-4s-2.805-4-26.071-4H114v4m62.715 9.006c-35.525 6.224-48.455 51.217-21.673 75.413 25.274 22.834 66.08 8.255 71.997-25.723 4.974-28.561-21.533-54.735-50.324-49.69M114 176v4h6.566c7.39 0 10.434-1.167 10.434-4s-3.044-4-10.434-4H114v4m74.84 14.702-10.86 10.703-4.855-4.782c-5.883-5.795-10.377-6.299-10.955-1.229-.278 2.433.753 3.986 6.473 9.75 9.487 9.561 9.214 9.627 24.656-5.98 12.429-12.561 14.176-15.289 11.501-17.964-2.594-2.594-5.349-.954-15.96 9.502M114 208v4h5.566c6.44 0 9.434-1.269 9.434-4s-2.994-4-9.434-4H114v4m0 28v4.05l16.142-.275c17.389-.296 20.01-1.136 17.245-5.525-.963-1.529-3.142-1.785-17.245-2.025L114 231.95V236" fill-rule="evenodd"/>
</svg>