<!DOCTYPE svg PUBLIC "-//W3C//DTD SVG 1.1//EN" "http://www.w3.org/Graphics/SVG/1.1/DTD/svg11.dtd">
<svg xmlns="http://www.w3.org/2000/svg" viewBox="0 0 114 122">
<path fill="#061e4b" d="M0 61.008v61.008l57.25-.258 57.25-.258.258-60.75.257-60.75H0v61.008m.47.492c0 33.55.126 47.13.28 30.178.153-16.952.153-44.402-.001-61S.47 27.95.47 61.5M35.5 41.072C13.065 62.478 12.895 62.69 15.891 65.401c2.635 2.385 2.185 2.722 22.917-17.151C48.706 38.763 57.088 31 57.434 31c.347 0 9.139 8.1 19.539 18 10.399 9.9 19.315 18 19.812 18 1.137 0 4.215-3.344 4.215-4.579 0-1.16-41.799-40.838-43.354-41.153-.63-.128-10.596 8.784-22.146 19.804m6.069 8.665L25.953 64.458l.273 16.021L26.5 96.5l10.5.292c16.116.447 15 1.437 15-13.311V71h11v12.481c0 14.748-1.116 13.758 15 13.311l10.5-.292.266-16 .265-16L74.851 51c-7.799-7.425-14.964-14.059-15.922-14.742-1.529-1.088-3.666.571-17.36 13.479M107 101.441c0 3.706.435 6.559 1 6.559.554 0 1-2.647 1-5.941 0-3.268-.45-6.219-1-6.559-.628-.388-1 1.823-1 5.941" fill-rule="evenodd"/>
</svg>