<?xml version="1.0" encoding="UTF-8"?>
<!-- Uploaded to: SVG Find, www.svgrepo.com, Generator: SVG Find Mixer Tools -->
<svg fill="#000000" width="800px" height="800px" version="1.1" viewBox="144 144 512 512" xmlns="http://www.w3.org/2000/svg">
 <path d="m289.79 329.15c0-2.0859 0.82813-4.0898 2.3047-5.5664 1.4766-1.4766 3.4805-2.3047 5.5703-2.3047h94.461c4.3477 0 7.875 3.5234 7.875 7.8711 0 4.3477-3.5273 7.875-7.875 7.875h-94.461c-2.0898 0-4.0938-0.82813-5.5703-2.3047s-2.3047-3.4805-2.3047-5.5703zm141.7 23.617h-133.82c-4.3477 0-7.875 3.5234-7.875 7.8711 0 4.3477 3.5273 7.875 7.875 7.875h133.82c4.3477 0 7.8711-3.5273 7.8711-7.875 0-4.3477-3.5234-7.8711-7.8711-7.8711zm-133.82 70.848h39.359c4.3477 0 7.8711-3.5234 7.8711-7.8711 0-4.3477-3.5234-7.8711-7.8711-7.8711h-39.359c-4.3477 0-7.875 3.5234-7.875 7.8711 0 4.3477 3.5273 7.8711 7.875 7.8711zm102.34 15.742-102.34 0.003906c-4.3477 0-7.875 3.5234-7.875 7.8711 0 4.3477 3.5273 7.8711 7.875 7.8711h102.34c4.3477 0 7.8711-3.5234 7.8711-7.8711 0-4.3477-3.5234-7.8711-7.8711-7.8711zm-102.34 70.852h70.848c4.3477 0 7.8711-3.5234 7.8711-7.8711 0-4.3477-3.5234-7.875-7.8711-7.875h-70.848c-4.3477 0-7.875 3.5273-7.875 7.875 0 4.3477 3.5273 7.8711 7.875 7.8711zm102.34 15.742h-102.34c-4.3477 0-7.875 3.5273-7.875 7.875 0 4.3477 3.5273 7.8711 7.875 7.8711h102.34c4.3477 0 7.8711-3.5234 7.8711-7.8711 0-4.3477-3.5234-7.875-7.8711-7.875zm-141.7-204.67h-31.488c-2.0859 0-4.0898 0.82812-5.5664 2.3047-1.4766 1.4766-2.3047 3.4805-2.3047 5.5664v31.488c0 2.0898 0.82812 4.0938 2.3047 5.5703 1.4766 1.4766 3.4805 2.3047 5.5664 2.3047h31.488c2.0898 0 4.0938-0.82812 5.5664-2.3047 1.4766-1.4766 2.3086-3.4805 2.3086-5.5703v-31.488c0-2.0859-0.83203-4.0898-2.3086-5.5664-1.4727-1.4766-3.4766-2.3047-5.5664-2.3047zm0 86.594h-31.488c-2.0859 0-4.0898 0.82812-5.5664 2.3047-1.4766 1.4766-2.3047 3.4805-2.3047 5.5664v31.488c0 2.0898 0.82812 4.0898 2.3047 5.5664 1.4766 1.4766 3.4805 2.3047 5.5664 2.3047h31.488c2.0898 0 4.0938-0.82812 5.5664-2.3047 1.4766-1.4766 2.3086-3.4766 2.3086-5.5664v-31.488c0-2.0859-0.83203-4.0898-2.3086-5.5664-1.4727-1.4766-3.4766-2.3047-5.5664-2.3047zm0 86.594-31.488-0.003906c-2.0859 0-4.0898 0.83203-5.5664 2.3086-1.4766 1.4766-2.3047 3.4766-2.3047 5.5664v31.488c0 2.0859 0.82812 4.0898 2.3047 5.5664 1.4766 1.4766 3.4805 2.3047 5.5664 2.3047h31.488c2.0898 0 4.0938-0.82812 5.5664-2.3047 1.4766-1.4766 2.3086-3.4805 2.3086-5.5664v-31.488c0-2.0898-0.83203-4.0898-2.3086-5.5664-1.4727-1.4766-3.4766-2.3086-5.5664-2.3086zm385.73 0v-0.003906c-0.027344 25.047-9.9883 49.059-27.699 66.77-17.707 17.707-41.719 27.668-66.766 27.695h-385.73c-2.0859 0-4.0898-0.82812-5.5664-2.3047-1.4766-1.4766-2.3047-3.4766-2.3047-5.5664v-362.11c0-2.0859 0.82812-4.0898 2.3047-5.5664 1.4766-1.4766 3.4805-2.3047 5.5664-2.3047h385.73c2.0898 0 4.0898 0.82813 5.5664 2.3047 1.4766 1.4766 2.3086 3.4805 2.3047 5.5664v181.46c23.59 1.9883 45.578 12.758 61.609 30.172 16.035 17.418 24.949 40.219 24.984 63.891zm-393.6-244.04c0 3.1836 1.918 6.0547 4.8594 7.2734 2.9414 1.2188 6.3281 0.54297 8.5781-1.707 2.2539-2.25 2.9258-5.6367 1.707-8.5781-1.2188-2.9414-4.0898-4.8594-7.2734-4.8594-4.3477 0-7.8711 3.5234-7.8711 7.8711zm-31.488 0c0 3.1836 1.918 6.0547 4.8594 7.2734 2.9414 1.2188 6.3281 0.54297 8.5781-1.707 2.2539-2.25 2.9258-5.6367 1.707-8.5781-1.2188-2.9414-4.0898-4.8594-7.2734-4.8594-4.3477 0-7.8711 3.5234-7.8711 7.8711zm-31.488 0c0 3.1836 1.918 6.0547 4.8594 7.2734s6.3281 0.54297 8.5781-1.707c2.2539-2.25 2.9258-5.6367 1.707-8.5781-1.2188-2.9414-4.0859-4.8594-7.2734-4.8594-4.3477 0-7.8711 3.5234-7.8711 7.8711zm310.01 322.75c-21.969-14.512-36.879-37.539-41.125-63.527-4.2422-25.984 2.5586-52.559 18.77-73.309 16.207-20.75 40.348-33.781 66.59-35.949v-110.61h-369.98v283.39zm97.035-107.9c-1.4766-1.4766-3.4805-2.3047-5.5664-2.3047-2.0898 0-4.0898 0.82813-5.5664 2.3047l-48.684 48.684-18.176-24.223c-2.6055-3.4766-7.5391-4.1836-11.016-1.5742-3.4766 2.6055-4.1836 7.5391-1.5742 11.016l23.617 31.488h-0.003906c1.4766 1.9922 3.8164 3.1641 6.2969 3.1523 2.0898 0 4.0898-0.83203 5.5664-2.3086l55.105-55.105v0.003906c1.4766-1.4766 2.3047-3.4805 2.3047-5.5664 0-2.0898-0.82812-4.0898-2.3047-5.5664z"/>
</svg>